<mxfile host="app.diagrams.net" agent="Mozilla/5.0 (Windows NT 10.0; Win64; x64) AppleWebKit/537.36 (KHTML, like Gecko) Chrome/137.0.0.0 Safari/537.36" version="27.0.9">
  <diagram name="Page-1" id="qF8F7SKCRVA8RhOYSkK7">
    <mxGraphModel dx="794" dy="501" grid="1" gridSize="10" guides="1" tooltips="1" connect="1" arrows="1" fold="1" page="1" pageScale="1" pageWidth="827" pageHeight="1169" math="0" shadow="0">
      <root>
        <mxCell id="0" />
        <mxCell id="1" parent="0" />
        <mxCell id="t8XPzvLlMqZs-GdG2Mmc-4" style="edgeStyle=orthogonalEdgeStyle;rounded=0;orthogonalLoop=1;jettySize=auto;html=1;exitX=1;exitY=0.5;exitDx=0;exitDy=0;entryX=0;entryY=0.5;entryDx=0;entryDy=0;" edge="1" parent="1" source="t8XPzvLlMqZs-GdG2Mmc-1" target="t8XPzvLlMqZs-GdG2Mmc-2">
          <mxGeometry relative="1" as="geometry" />
        </mxCell>
        <mxCell id="t8XPzvLlMqZs-GdG2Mmc-1" value="Emetteur" style="whiteSpace=wrap;html=1;aspect=fixed;" vertex="1" parent="1">
          <mxGeometry x="90" y="260" width="80" height="80" as="geometry" />
        </mxCell>
        <mxCell id="t8XPzvLlMqZs-GdG2Mmc-2" value="Serveur" style="whiteSpace=wrap;html=1;aspect=fixed;" vertex="1" parent="1">
          <mxGeometry x="360" y="260" width="80" height="80" as="geometry" />
        </mxCell>
        <mxCell id="t8XPzvLlMqZs-GdG2Mmc-3" value="Destinataire" style="whiteSpace=wrap;html=1;aspect=fixed;" vertex="1" parent="1">
          <mxGeometry x="630" y="260" width="80" height="80" as="geometry" />
        </mxCell>
        <mxCell id="t8XPzvLlMqZs-GdG2Mmc-5" value="Client" style="whiteSpace=wrap;html=1;aspect=fixed;" vertex="1" parent="1">
          <mxGeometry x="90" y="70" width="80" height="80" as="geometry" />
        </mxCell>
        <mxCell id="t8XPzvLlMqZs-GdG2Mmc-6" value="Serveur" style="whiteSpace=wrap;html=1;aspect=fixed;" vertex="1" parent="1">
          <mxGeometry x="360" y="70" width="80" height="80" as="geometry" />
        </mxCell>
      </root>
    </mxGraphModel>
  </diagram>
</mxfile>
